<svg width="21" height="20" viewBox="0 0 21 20" fill="none" xmlns="http://www.w3.org/2000/svg">
<path d="M10.2526 0.000640776C4.58866 0.000640776 0 4.59314 0 10.2532C0 14.7855 2.93736 18.627 7.00826 19.9822C7.52281 20.079 7.70864 19.7618 7.70864 19.4875C7.70864 19.244 7.70287 18.6001 7.69903 17.7452C4.84561 18.363 4.24456 16.3669 4.24456 16.3669C3.77743 15.1853 3.10332 14.8681 3.10332 14.8681C2.17546 14.2344 3.17701 14.2478 3.17701 14.2478C4.20483 14.3177 4.74565 15.3019 4.74565 15.3019C5.66005 16.8706 7.14475 16.4169 7.73235 16.1529C7.82206 15.4922 8.08926 15.0379 8.38018 14.7848C6.10411 14.5279 3.71078 13.6468 3.71078 9.71814C3.71078 8.59612 4.10807 7.68237 4.76487 6.96469C4.65146 6.70773 4.30415 5.66325 4.85522 4.25096C4.85522 4.25096 5.71324 3.97735 7.67468 5.30249C8.49552 5.07501 9.36699 4.96159 10.2378 4.95583C11.1093 4.96159 11.9801 5.07565 12.801 5.30249C14.7509 3.97735 15.6082 4.25096 15.6082 4.25096C16.1587 5.66325 15.8114 6.70709 15.7114 6.96469C16.3618 7.68237 16.7591 8.59677 16.7591 9.71814C16.7591 13.6558 14.3625 14.524 12.0839 14.7746C12.4402 15.0815 12.774 15.7127 12.774 16.6707C12.774 18.0419 12.7612 19.1466 12.7612 19.4805C12.7612 19.7471 12.9406 20.0675 13.4687 19.9643C17.5697 18.6231 20.5038 14.7784 20.5038 10.2526C20.5038 4.5925 15.9152 0 10.2513 0L10.2526 0.000640776Z" fill="#08FDD8"/>
</svg>
