<svg height="40px" width="40px" viewBox="0 0 628 628" fill="none" xmlns="http://www.w3.org/2000/svg">
                  <path
                     d="M134.687 617.603L136.883 619.8H139.99H239.42H242.527L244.723 617.603L313.995 548.331L383.277 617.604L385.474 619.8H388.58H488.01H491.117L493.313 617.603L617.603 493.313L619.8 491.117V488.01V388.58V385.473L617.603 383.277L548.331 314.005L617.604 244.723L619.8 242.526V239.42V139.99V136.883L617.603 134.687L493.313 10.3967L491.117 8.20001H488.01H388.58H385.473L383.277 10.3967L314.005 79.6688L244.723 10.3964L242.526 8.20001H239.42H139.99H136.883L134.687 10.3967L10.3967 134.687L8.20001 136.883V139.99V239.42V242.527L10.3967 244.723L79.6688 313.995L10.3964 383.277L8.20001 385.474V388.58V488.01V491.117L10.3967 493.313L134.687 617.603ZM388.58 601.694L324.602 537.725L363.715 498.612L383.277 518.173L388.58 523.477L393.884 518.173L463.15 448.897L502.263 488.01L388.58 601.694ZM388.58 502.263L374.322 488.005L413.43 448.897L427.685 463.152L388.58 502.263ZM438.291 452.545L424.037 438.29L438.29 424.037L452.544 438.29L438.291 452.545ZM388.58 374.327L427.683 413.43L236.313 604.8H158.097L388.58 374.327ZM139.99 601.693L23.2 484.903V406.687L134.687 518.173L139.99 523.477L145.293 518.173L338.86 324.607L377.973 363.72L139.99 601.693ZM314 299.747L328.253 314L314 328.253L299.747 314L314 299.747ZM109.827 145.293L303.393 338.86L264.28 377.973L26.3065 139.99L143.097 23.2H221.313L109.827 134.687L104.523 139.99L109.827 145.293ZM23.2 158.097L253.673 388.58L214.57 427.683L23.2 236.313V158.097ZM189.71 424.037L203.963 438.29L189.71 452.544L175.455 438.291L189.71 424.037ZM109.827 393.884L179.103 463.15L139.99 502.263L26.3063 388.58L90.2754 324.602L129.388 363.715L109.827 383.277L104.523 388.58L109.827 393.884ZM125.737 388.58L139.995 374.322L179.103 413.43L164.848 427.685L125.737 388.58ZM239.42 26.3063L303.398 90.2754L264.285 129.388L244.723 109.827L239.42 104.523L234.116 109.827L164.85 179.103L125.737 139.99L239.42 26.3063ZM189.71 203.963L175.456 189.71L189.709 175.455L203.963 189.71L189.71 203.963ZM214.57 179.103L200.315 164.848L239.42 125.737L253.678 139.995L214.57 179.103ZM239.42 253.674L200.317 214.57L391.687 23.2H469.903L239.42 253.674ZM250.027 264.28L488.01 26.3065L604.8 143.097V221.313L493.313 109.827L488.01 104.523L482.707 109.827L289.14 303.393L250.027 264.28ZM601.694 239.42L537.725 303.398L498.612 264.285L518.173 244.723L523.477 239.42L518.173 234.116L448.897 164.85L488.01 125.737L601.694 239.42ZM424.037 189.71L438.29 175.456L452.545 189.709L438.29 203.963L424.037 189.71ZM448.897 214.57L463.152 200.315L502.263 239.42L488.005 253.678L448.897 214.57ZM374.327 239.42L413.43 200.317L604.8 391.687V469.903L374.327 239.42ZM363.72 250.027L601.693 488.01L484.903 604.8H406.687L518.173 493.313L523.477 488.01L518.173 482.707L324.607 289.14L363.72 250.027Z"
                     stroke="#f8f8f8" stroke-width="16" />
               </svg>